<svg xmlns="http://www.w3.org/2000/svg" version="1.1" xmlnsXlink="http://www.w3.org/1999/xlink" xmlnsSvgjs="http://svgjs.dev/svgjs" width="128" height="128" viewBox="0 0 128 128"><g transform="matrix(0.8046875,0,0,0.8046875,12.333870967741937,12.333870967741937)"><svg viewBox="0 0 155 155" data-background-color="#187614" preserveAspectRatio="xMidYMid meet" height="128" width="128" xmlns="http://www.w3.org/2000/svg" xmlnsXlink="http://www.w3.org/1999/xlink"><g id="tight-bounds" transform="matrix(1,0,0,1,0.25,0.25)"><svg viewBox="0 0 154.5 154.5" height="154.5" width="154.5"><g><svg></svg></g><g><svg viewBox="0 0 154.5 154.5" height="154.5" width="154.5"><g transform="matrix(1,0,0,1,47.746371,60.81192692805756)"><svg viewBox="0 0 59.00725799999999 32.87614614388489" height="32.87614614388489" width="59.00725799999999"><g><svg viewBox="0 0 59.00725799999999 32.87614614388489" height="32.87614614388489" width="59.00725799999999"><g><svg viewBox="0 0 59.00725799999999 32.87614614388489" height="32.87614614388489" width="59.00725799999999"><g id="textblocktransform"><svg viewBox="0 0 59.00725799999999 32.87614614388489" height="32.87614614388489" width="59.00725799999999" id="textblock"><g><svg viewBox="0 0 59.00725799999999 32.87614614388489" height="32.87614614388489" width="59.00725799999999"><g transform="matrix(1,0,0,1,0,0)"><svg width="59.00725799999999" viewBox="1.45 -34.7 62.55 34.85" height="32.87614614388489" data-palette-color="#f2fb58"><path d="M1.6 0.15L1.6 0.15 1.45-1.3Q4.1-1.85 4.95-2.25 5.8-2.65 5.9-3.45L5.9-3.45Q6-4.25 6.1-6.33 6.2-8.4 6.25-11.25 6.3-14.1 6.3-17.1L6.3-17.1Q6.3-22.5 6.2-25.48 6.1-28.45 6-29.63 5.9-30.8 5.9-30.8L5.9-30.8Q5.8-31.65 5.05-32.05 4.3-32.45 1.8-32.95L1.8-32.95 1.95-34.4Q3.55-34.35 5.18-34.3 6.8-34.25 8.65-34.25L8.65-34.25 17.05-34.25Q21.4-34.25 24.03-32.08 26.65-29.9 26.65-26.25L26.65-26.25Q26.65-23.95 25.23-21.88 23.8-19.8 21.4-18.6L21.4-18.6Q25.25-17.7 27.05-15.55 28.85-13.4 28.85-9.7L28.85-9.7Q28.85-7.05 27.38-4.83 25.9-2.6 23.4-1.3 20.9 0 17.85 0L17.85 0 8.65 0Q4.7 0 1.6 0.15ZM10.75-18.4L10.75-18.4Q11.2-18.5 12.2-18.6 13.2-18.7 14.4-18.78 15.6-18.85 16.63-18.93 17.65-19 18.2-19L18.2-19Q21.95-21.4 21.95-26.25L21.95-26.25Q21.95-29.15 20-30.65 18.05-32.15 14.35-32.15L14.35-32.15Q12.55-32.15 12.03-31.95 11.5-31.75 11.3-31.05L11.3-31.05Q11.2-30.5 11.05-28.63 10.9-26.75 10.83-24.08 10.75-21.4 10.75-18.4ZM16.35-1.8L16.35-1.8Q18.6-1.8 20.35-2.83 22.1-3.85 23.1-5.63 24.1-7.4 24.1-9.65L24.1-9.65Q24.1-16.9 13.9-16.9L13.9-16.9Q12.4-16.9 10.75-16.75L10.75-16.75Q10.75-13.55 10.83-10.65 10.9-7.75 11.05-5.8 11.2-3.85 11.3-3.4L11.3-3.4Q11.55-2.65 12.9-2.23 14.25-1.8 16.35-1.8ZM29.45 0.15L29.45 0.15 29.3-1.3Q31.65-1.75 32.65-2.27 33.65-2.8 33.95-3.75L33.95-3.75 43.9-34.2 48.1-34.7 59.75-3.45Q60.1-2.6 60.92-2.15 61.75-1.7 64-1.3L64-1.3 63.85 0.15Q62.2 0.05 60.6 0.03 59 0 57.2 0L57.2 0Q53.25 0 50.15 0.15L50.15 0.15 50-1.3Q52.6-1.8 53.5-2.2 54.4-2.6 54.4-3.2L54.4-3.2 51.65-12.1 40.35-12.1 37.65-3.2Q37.65-2.6 38.6-2.2 39.55-1.8 41.95-1.3L41.95-1.3 41.8 0.15Q40.15 0.05 38.55 0.03 36.95 0 35.15 0L35.15 0Q33.6 0 32.5 0.03 31.4 0.05 29.45 0.15ZM45.6-29.5L41.05-14.4 50.85-14.4 45.8-29.5 45.6-29.5Z" opacity="1" transform="matrix(1,0,0,1,0,0)" fill="#f2fb58" class="wordmark-text-0" data-fill-palette-color="primary" id="text-0"></path></svg></g></svg></g></svg></g></svg></g></svg></g></svg></g><g><path d="M60.372 53.051A29.504 29.504 0 0 1 94.128 53.051L91.163 53.051A26.539 26.539 0 0 0 63.337 53.051L60.372 53.051M60.372 101.449A29.504 29.504 0 0 0 94.128 101.449L91.163 101.449A26.539 26.539 0 0 1 63.337 101.449L60.372 101.449" fill="#f2fb58" stroke="transparent" data-fill-palette-color="tertiary"></path></g></svg></g><defs></defs></svg><rect width="154.5" height="154.5" fill="none" stroke="none" visibility="hidden"></rect></g></svg></g></svg>