<svg xmlns="http://www.w3.org/2000/svg" version="1.1" xmlnsXlink="http://www.w3.org/1999/xlink" xmlnsSvgjs="http://svgjs.dev/svgjs" width="2000" height="1247" viewBox="0 0 2000 1247"><g transform="matrix(1,0,0,1,-1.2121212121211329,0.504858299595071)"><svg viewBox="0 0 396 247" data-background-color="#187614" preserveAspectRatio="xMidYMid meet" height="1247" width="2000" xmlns="http://www.w3.org/2000/svg" xmlnsXlink="http://www.w3.org/1999/xlink"><g id="tight-bounds" transform="matrix(1,0,0,1,0.2400000000000091,-0.09999999999999432)"><svg viewBox="0 0 395.52 247.2" height="247.2" width="395.52"><g><svg></svg></g><g><svg viewBox="0 0 395.52 247.2" height="247.2" width="395.52"><g transform="matrix(1,0,0,1,75.54432,73.90484395709692)"><svg viewBox="0 0 244.43135999999998 99.39031208580614" height="99.39031208580614" width="244.43135999999998"><g><svg viewBox="0 0 244.43135999999998 99.39031208580614" height="99.39031208580614" width="244.43135999999998"><g><svg viewBox="0 0 244.43136 99.39031208580616" height="99.39031208580614" width="244.43135999999998"><g><svg viewBox="0 0 244.43136 99.39031208580616" height="99.39031208580616" width="244.43136"><g id="textblocktransform"><svg viewBox="0 0 244.43136 99.39031208580616" height="99.39031208580616" width="244.43136" id="textblock"><g><svg viewBox="0 0 244.43136 61.13862480604533" height="61.13862480604533" width="244.43136"><g transform="matrix(1,0,0,1,0,0)"><svg width="244.43136" viewBox="1.45 -36.5 198.48000000000002 49.65" height="61.13862480604533" data-palette-color="#f2fb58"><path d="M1.6 0.15L1.6 0.15 1.45-1.3Q4.1-1.85 4.95-2.25 5.8-2.65 5.9-3.45L5.9-3.45Q6-4.25 6.1-6.33 6.2-8.4 6.25-11.25 6.3-14.1 6.3-17.1L6.3-17.1Q6.3-22.5 6.2-25.48 6.1-28.45 6-29.63 5.9-30.8 5.9-30.8L5.9-30.8Q5.8-31.65 5.05-32.05 4.3-32.45 1.8-32.95L1.8-32.95 1.95-34.4Q3.55-34.35 5.18-34.3 6.8-34.25 8.65-34.25L8.65-34.25 17.05-34.25Q21.4-34.25 24.03-32.08 26.65-29.9 26.65-26.25L26.65-26.25Q26.65-23.95 25.23-21.88 23.8-19.8 21.4-18.6L21.4-18.6Q25.25-17.7 27.05-15.55 28.85-13.4 28.85-9.7L28.85-9.7Q28.85-7.05 27.38-4.83 25.9-2.6 23.4-1.3 20.9 0 17.85 0L17.85 0 8.65 0Q4.7 0 1.6 0.15ZM10.75-18.4L10.75-18.4Q11.2-18.5 12.2-18.6 13.2-18.7 14.4-18.78 15.6-18.85 16.63-18.93 17.65-19 18.2-19L18.2-19Q21.95-21.4 21.95-26.25L21.95-26.25Q21.95-29.15 20-30.65 18.05-32.15 14.35-32.15L14.35-32.15Q12.55-32.15 12.03-31.95 11.5-31.75 11.3-31.05L11.3-31.05Q11.2-30.5 11.05-28.63 10.9-26.75 10.83-24.08 10.75-21.4 10.75-18.4ZM16.35-1.8L16.35-1.8Q18.6-1.8 20.35-2.83 22.1-3.85 23.1-5.63 24.1-7.4 24.1-9.65L24.1-9.65Q24.1-16.9 13.9-16.9L13.9-16.9Q12.4-16.9 10.75-16.75L10.75-16.75Q10.75-13.55 10.83-10.65 10.9-7.75 11.05-5.8 11.2-3.85 11.3-3.4L11.3-3.4Q11.55-2.65 12.9-2.23 14.25-1.8 16.35-1.8ZM54.2-4.25L54.2-4.25Q54.25-3.35 54.82-2.9 55.4-2.45 56.27-2.33 57.15-2.2 58-2.15L58-2.15 57.85-0.7Q56.5-0.6 55.1-0.33 53.7-0.05 52.4 0.2L52.4 0.2Q52.4 0.2 51.57-0.43 50.75-1.05 50.35-2.8L50.35-2.8Q48.35-1.45 45.75-0.5 43.15 0.45 40.65 0.45L40.65 0.45Q38.45 0.45 37-0.68 35.55-1.8 35.55-4.75L35.55-4.75 35.55-11.45Q35.55-15.1 35.47-16.88 35.4-18.65 35.3-19.23 35.2-19.8 35.2-19.8L35.2-19.8 32.25-20.75 32.15-22.05Q33.5-22.05 35.37-22.33 37.25-22.6 38.5-22.95L38.5-22.95 39.45-22.5Q39.45-22.5 39.42-21 39.4-19.5 39.37-17.03 39.35-14.55 39.32-11.68 39.3-8.8 39.3-6L39.3-6Q39.3-4.15 40.32-3.4 41.35-2.65 43.35-2.65L43.35-2.65Q45.2-2.65 47.12-3.35 49.05-4.05 50.1-4.75L50.1-4.75Q50.2-5.75 50.25-7.15 50.3-8.55 50.3-11.45L50.3-11.45Q50.3-15.1 50.2-16.88 50.1-18.65 50-19.23 49.9-19.8 49.9-19.8L49.9-19.8 46.75-20.75 46.65-22.05Q47.55-22.05 48.77-22.18 50-22.3 51.2-22.53 52.4-22.75 53.25-22.95L53.25-22.95 54.2-22.5Q54.2-22.5 54.12-19.55 54.05-16.6 54.05-10.1L54.05-10.1Q54.05-6.95 54.12-5.6 54.2-4.25 54.2-4.25ZM77.65-2.8L77.65-2.8Q75.9-1.15 73.87-0.35 71.84 0.45 69.95 0.45L69.95 0.45Q67.45 0.45 65.34-0.83 63.25-2.1 62-4.63 60.75-7.15 60.75-10.85L60.75-10.85Q60.75-14.85 62.25-17.55 63.75-20.25 66.22-21.65 68.7-23.05 71.59-23.05L71.59-23.05Q73.2-23.05 74.55-22.68 75.9-22.3 77.59-21.3L77.59-21.3Q77.59-25.2 77.52-27.6 77.45-30 77.37-31.23 77.3-32.45 77.25-32.9 77.2-33.35 77.2-33.35L77.2-33.35 74-34.3 73.9-35.6Q74.8-35.6 76.02-35.73 77.25-35.85 78.45-36.08 79.65-36.3 80.5-36.5L80.5-36.5 81.45-36.05Q81.45-36.05 81.4-31.4 81.34-26.75 81.34-17.6L81.34-17.6Q81.34-11.55 81.4-8.55 81.45-5.55 81.5-4.25L81.5-4.25Q81.55-3.35 82.15-2.9 82.75-2.45 83.59-2.33 84.45-2.2 85.3-2.15L85.3-2.15 85.15-0.7Q83.8-0.6 82.4-0.33 81-0.05 79.7 0.2L79.7 0.2Q79.7 0.2 78.87-0.43 78.05-1.05 77.65-2.8ZM77.59-19.1L77.59-19.1Q76.3-19.55 75.17-19.78 74.05-20 72.9-20L72.9-20Q70.09-20 68.4-18.7 66.7-17.4 65.95-15.35 65.2-13.3 65.2-10.95L65.2-10.95Q65.2-7.45 66.77-5.08 68.34-2.7 71.7-2.7L71.7-2.7Q73.45-2.7 75-3.4 76.55-4.1 77.34-4.7L77.34-4.7Q77.4-5.5 77.45-7.68 77.5-9.85 77.55-12.85 77.59-15.85 77.59-19.1ZM104.84-2.8L104.84-2.8Q103.09-1.15 101.07-0.35 99.04 0.45 97.14 0.45L97.14 0.45Q94.64 0.45 92.54-0.83 90.44-2.1 89.19-4.63 87.94-7.15 87.94-10.85L87.94-10.85Q87.94-14.85 89.44-17.55 90.94-20.25 93.42-21.65 95.89-23.05 98.79-23.05L98.79-23.05Q100.39-23.05 101.74-22.68 103.09-22.3 104.79-21.3L104.79-21.3Q104.79-25.2 104.72-27.6 104.64-30 104.57-31.23 104.49-32.45 104.44-32.9 104.39-33.35 104.39-33.35L104.39-33.35 101.19-34.3 101.09-35.6Q101.99-35.6 103.22-35.73 104.44-35.85 105.64-36.08 106.84-36.3 107.69-36.5L107.69-36.5 108.64-36.05Q108.64-36.05 108.59-31.4 108.54-26.75 108.54-17.6L108.54-17.6Q108.54-11.55 108.59-8.55 108.64-5.55 108.69-4.25L108.69-4.25Q108.74-3.35 109.34-2.9 109.94-2.45 110.79-2.33 111.64-2.2 112.49-2.15L112.49-2.15 112.34-0.7Q110.99-0.6 109.59-0.33 108.19-0.05 106.89 0.2L106.89 0.2Q106.89 0.2 106.07-0.43 105.24-1.05 104.84-2.8ZM104.79-19.1L104.79-19.1Q103.49-19.55 102.37-19.78 101.24-20 100.09-20L100.09-20Q97.29-20 95.59-18.7 93.89-17.4 93.14-15.35 92.39-13.3 92.39-10.95L92.39-10.95Q92.39-7.45 93.97-5.08 95.54-2.7 98.89-2.7L98.89-2.7Q100.64-2.7 102.19-3.4 103.74-4.1 104.54-4.7L104.54-4.7Q104.59-5.5 104.64-7.68 104.69-9.85 104.74-12.85 104.79-15.85 104.79-19.1ZM124.59 0L124.59 0 122.84-1.05 116.34-19.3Q116.14-19.85 115.54-20.48 114.94-21.1 113.29-21.35L113.29-21.35 113.14-22.8Q113.14-22.8 114.04-22.78 114.94-22.75 116.14-22.7 117.34-22.65 118.24-22.65L118.24-22.65Q119.19-22.65 120.34-22.7 121.49-22.75 122.32-22.78 123.14-22.8 123.14-22.8L123.14-22.8 123.29-21.35Q121.64-21.15 120.97-20.7 120.29-20.25 120.29-19.85L120.29-19.85Q120.29-19.65 121.74-15.43 123.19-11.2 125.79-3.2L125.79-3.2Q128.59-11.1 129.99-15.28 131.39-19.45 131.39-19.9L131.39-19.9Q131.39-21 128.64-21.35L128.64-21.35 128.49-22.8Q128.49-22.8 129.59-22.73 130.69-22.65 132.09-22.65L132.09-22.65Q132.99-22.65 134.19-22.7 135.39-22.75 136.29-22.78 137.19-22.8 137.19-22.8L137.19-22.8 137.34-21.35Q135.79-21.15 135.17-20.78 134.54-20.4 134.31-19.7 134.09-19 133.59-17.7L133.59-17.7 126.94 0Q125.14 4.8 123.54 7.5 121.94 10.2 120.67 11.4 119.39 12.6 118.44 12.88 117.49 13.15 116.94 13.15L116.94 13.15Q116.69 13.15 116.17 12.63 115.64 12.1 115.14 11.28 114.64 10.45 114.39 9.65L114.39 9.65 115.14 8.7Q116.09 9.15 117.39 9.15L117.39 9.15Q118.19 9.15 119.29 8.45 120.39 7.75 121.74 5.78 123.09 3.8 124.59 0ZM149.94 0.15L149.94 0.15 149.79-1.3Q152.14-1.75 153.14-2.27 154.14-2.8 154.44-3.75L154.44-3.75 164.39-34.2 168.59-34.7 180.24-3.45Q180.59-2.6 181.41-2.15 182.24-1.7 184.49-1.3L184.49-1.3 184.34 0.15Q182.69 0.05 181.09 0.03 179.49 0 177.69 0L177.69 0Q173.74 0 170.64 0.15L170.64 0.15 170.49-1.3Q173.09-1.8 173.99-2.2 174.89-2.6 174.89-3.2L174.89-3.2 172.14-12.1 160.84-12.1 158.14-3.2Q158.14-2.6 159.09-2.2 160.04-1.8 162.44-1.3L162.44-1.3 162.29 0.15Q160.64 0.05 159.04 0.03 157.44 0 155.64 0L155.64 0Q154.09 0 152.99 0.03 151.89 0.05 149.94 0.15ZM166.09-29.5L161.54-14.4 171.34-14.4 166.29-29.5 166.09-29.5ZM195.28-17.1L195.28-17.1Q195.28-11.7 195.38-8.75 195.48-5.8 195.58-4.63 195.68-3.45 195.68-3.45L195.68-3.45Q195.78-2.5 196.73-2.13 197.68-1.75 199.93-1.3L199.93-1.3 199.78 0.15Q198.23 0.05 196.63 0.03 195.03 0 193.13 0L193.13 0Q189.23 0 186.08 0.15L186.08 0.15 185.93-1.3Q188.18-1.75 189.23-2.13 190.28-2.5 190.38-3.45L190.38-3.45Q190.38-3.45 190.48-4.63 190.58-5.8 190.68-8.78 190.78-11.75 190.78-17.1L190.78-17.1Q190.78-22.5 190.68-25.48 190.58-28.45 190.48-29.63 190.38-30.8 190.38-30.8L190.38-30.8Q190.28-31.75 189.41-32.13 188.53-32.5 186.28-32.95L186.28-32.95 186.43-34.4Q188.03-34.35 189.66-34.3 191.28-34.25 193.13-34.25L193.13-34.25Q195.03-34.25 196.56-34.3 198.08-34.35 199.63-34.4L199.63-34.4 199.78-32.95Q197.53-32.5 196.66-32.13 195.78-31.75 195.68-30.8L195.68-30.8Q195.68-30.8 195.58-29.63 195.48-28.45 195.38-25.48 195.28-22.5 195.28-17.1Z" opacity="1" transform="matrix(1,0,0,1,0,0)" fill="#f2fb58" class="wordmark-text-0" data-fill-palette-color="primary" id="text-0"></path></svg></g></svg></g><g transform="matrix(1,0,0,1,0,75.57198679575728)"><svg viewBox="0 0 244.43136 23.81832529004888" height="23.81832529004888" width="244.43136"><g transform="matrix(1,0,0,1,0,0)"><svg width="244.43136" viewBox="4.83 -43.51 453.78000000000003 44.224999999999994" height="23.81832529004888" data-palette-color="#f2fb58"><path d="M4.83-2.71L4.83-2.71Q4.83-3.42 5.04-4.11 5.25-4.81 5.25-5.59L5.25-5.59 4.88-34.74Q4.91-36.6 5.53-37.49 6.15-38.38 7.67-38.38L7.67-38.38Q8.5-38.38 9.06-38.23 9.62-38.09 9.96-37.72 10.3-37.35 10.44-36.77 10.57-36.18 10.57-35.3L10.57-35.3 10.57-31.64Q10.57-30.13 10.56-28.04 10.55-25.95 10.55-23.58 10.55-21.22 10.55-18.69 10.55-16.16 10.55-13.76 10.55-11.35 10.55-9.2 10.55-7.06 10.57-5.44L10.57-5.44Q13.43-5.44 15.39-5.46 17.36-5.47 18.63-5.52L18.63-5.52Q19.31-5.57 20-5.68 20.68-5.79 21.46-5.79L21.46-5.79Q23.07-5.79 23.91-5.05 24.76-4.32 24.76-2.91L24.76-2.91Q24.76-1.95 24.39-1.38 24.02-0.81 23.43-0.5 22.83-0.2 22.08-0.1 21.34 0 20.58 0L20.58 0 7.62 0Q7.01 0 6.49-0.11 5.98-0.22 5.62-0.51 5.25-0.81 5.04-1.33 4.83-1.86 4.83-2.71ZM35.54-11.01L35.54-11.01Q36.01-9.18 36.92-7.95 37.84-6.71 38.99-5.96 40.13-5.2 41.42-4.87 42.7-4.54 43.92-4.54L43.92-4.54Q45.82-4.54 47.31-4.87 48.8-5.2 49.86-5.68 50.93-6.15 51.58-6.67 52.24-7.18 52.51-7.57L52.51-7.57Q52.76-7.93 53.06-8.26 53.37-8.59 53.72-8.85 54.07-9.11 54.43-9.25 54.78-9.4 55.1-9.4L55.1-9.4Q56.32-9.4 56.99-8.68 57.66-7.96 57.66-6.74L57.66-6.74Q57.66-6.27 57.32-5.57 56.98-4.86 56.05-4L56.05-4Q55.03-3.05 53.77-2.2 52.51-1.34 51-0.7 49.48-0.05 47.71 0.33 45.94 0.71 43.89 0.71L43.89 0.71Q41.48 0.71 39.48 0.06 37.47-0.59 35.89-1.7 34.3-2.81 33.13-4.27 31.96-5.74 31.17-7.4 30.39-9.06 30-10.82 29.61-12.57 29.61-14.23L29.61-14.23Q29.61-17.85 30.78-20.76 31.96-23.68 34.01-25.76 36.06-27.83 38.86-28.96 41.67-30.08 44.94-30.08L44.94-30.08Q47.29-30.08 49.34-29.38 51.39-28.69 52.99-27.43 54.59-26.17 55.67-24.43 56.76-22.68 57.2-20.58L57.2-20.58Q57.69-20.17 57.92-19.49 58.15-18.82 58.15-18.16L58.15-18.16Q58.15-17.07 57.41-16.37 56.66-15.67 55.54-15.41L55.54-15.41Q53.07-14.77 50.61-14.23 48.14-13.7 45.65-13.18 43.16-12.67 40.63-12.13 38.11-11.6 35.54-11.01ZM35.13-15.53L35.13-15.53Q39.28-16.5 43.53-17.36 47.78-18.21 52.17-19.26L52.17-19.26Q51.76-20.39 51.05-21.4 50.34-22.41 49.39-23.17 48.44-23.93 47.28-24.37 46.12-24.8 44.77-24.8L44.77-24.8Q42.7-24.8 41-24.13 39.3-23.46 38.06-22.25 36.81-21.04 36.06-19.32 35.3-17.6 35.13-15.53ZM63.84-14.65L63.84-14.65Q63.84-17.97 64.96-20.83 66.08-23.68 68.05-25.78 70.01-27.88 72.66-29.08 75.31-30.27 78.39-30.27L78.39-30.27Q79.95-30.27 81.38-29.91 82.81-29.54 84.04-28.94 85.27-28.34 86.26-27.59 87.25-26.83 87.96-26.03L87.96-26.03Q87.93-26.37 87.93-26.76 87.93-27.15 87.93-27.44L87.93-27.44Q87.93-28.05 88.11-28.58 88.28-29.1 88.64-29.49 89.01-29.88 89.57-30.11 90.13-30.35 90.94-30.35L90.94-30.35Q91.62-30.35 92.17-30.09 92.72-29.83 93.11-29.46 93.5-29.08 93.72-28.65 93.94-28.22 93.94-27.88L93.94-27.88Q93.94-27.05 93.85-26.21 93.77-25.37 93.72-24.51L93.72-24.51Q93.72-21.83 93.68-19.76 93.65-17.7 93.6-15.97L93.6-15.97Q93.55-14.79 93.53-13.54 93.5-12.28 93.5-11.23L93.5-11.23Q93.5-8.86 93.5-7.47 93.5-6.08 93.62-5.44L93.62-5.44Q93.84-5.49 94.27-5.66 94.7-5.83 95.06-6.03L95.06-6.03Q95.41-6.15 95.75-6.27 96.09-6.4 96.6-6.4L96.6-6.4Q97.19-6.4 97.63-6.14 98.07-5.88 98.37-5.48 98.68-5.08 98.82-4.58 98.97-4.08 98.97-3.61L98.97-3.61Q98.97-2.95 98.65-2.28 98.33-1.61 97.48-1.32L97.48-1.32Q96.75-1.05 95.99-0.76 95.23-0.46 94.47-0.22 93.7 0.02 92.93 0.2 92.16 0.37 91.35 0.37L91.35 0.37Q90.4 0.37 89.79-0.02 89.18-0.42 88.84-1.04 88.5-1.66 88.35-2.42 88.2-3.17 88.18-3.91L88.18-3.91Q87.42-2.95 86.35-2.12 85.27-1.29 83.98-0.66 82.69-0.02 81.21 0.34 79.73 0.71 78.17 0.71L78.17 0.71Q75 0.71 72.36-0.45 69.72-1.61 67.83-3.67 65.94-5.74 64.89-8.54 63.84-11.35 63.84-14.65ZM69.45-14.65L69.45-14.65Q69.45-12.67 70.05-10.84 70.65-9.01 71.78-7.6 72.92-6.2 74.58-5.37 76.24-4.54 78.34-4.54L78.34-4.54Q80.41-4.54 82.1-5.35 83.78-6.15 85.04-7.45 86.3-8.74 87.1-10.34 87.91-11.94 88.2-13.55L88.2-13.55 88.2-15.7Q87.93-17.19 87.19-18.85 86.45-20.51 85.24-21.91 84.03-23.32 82.34-24.23 80.66-25.15 78.54-25.15L78.54-25.15Q76.53-25.15 74.87-24.33 73.21-23.51 72-22.08 70.8-20.65 70.12-18.75 69.45-16.85 69.45-14.65ZM105.19-2.17L105.19-2.17Q105.19-3.03 105.22-3.88 105.24-4.74 105.27-5.76L105.27-5.76 105.27-24.58Q105.27-25.27 105.12-25.96 104.97-26.66 104.97-27.42L104.97-27.42Q104.97-28.71 105.9-29.39 106.83-30.08 108.42-30.08L108.42-30.08Q109.1-30.08 109.61-29.85 110.12-29.61 110.47-29.25 110.81-28.88 110.98-28.42 111.15-27.95 111.15-27.47L111.15-27.47Q111.15-27.05 111.09-26.62 111.03-26.2 110.95-25.78L110.95-25.78Q114.69-26.71 117.31-27.47 119.94-28.22 121.43-28.71L121.43-28.71Q121.75-29.27 122.32-29.68 122.89-30.08 123.82-30.08L123.82-30.08Q125.16-30.08 125.96-29.38 126.75-28.69 126.75-27.64L126.75-27.64Q126.75-27.22 126.7-26.78 126.65-26.34 126.65-25.9L126.65-25.9Q126.51-24.41 126.59-22.88 126.68-21.34 126.8-19.78L126.8-19.78Q126.85-19.29 126.86-18.74 126.87-18.19 126.87-17.63L126.87-17.63Q126.87-17.04 126.58-16.65 126.29-16.26 125.83-16.03 125.38-15.8 124.85-15.7 124.31-15.6 123.8-15.6L123.8-15.6Q123.06-15.6 122.58-15.86 122.09-16.11 121.78-16.52 121.48-16.92 121.34-17.42 121.21-17.92 121.21-18.41L121.21-18.41Q121.21-19.53 121.23-20.69 121.26-21.85 121.28-23.24L121.28-23.24Q120.35-23.02 118.73-22.66 117.11-22.29 115.18-21.88L115.18-21.88Q114.08-21.61 113.01-21.37 111.93-21.14 110.83-20.9L110.83-20.9 110.83-4.96 111.56-5.18Q112.05-5.35 112.49-5.48 112.93-5.62 113.49-5.66L113.49-5.66Q113.96-5.62 114.41-5.44 114.86-5.27 115.21-4.96 115.57-4.64 115.79-4.16 116.01-3.69 116.01-3.08L116.01-3.08Q116.01-2.51 115.83-2 115.64-1.49 115.32-1.09 115.01-0.68 114.58-0.43 114.15-0.17 113.64-0.15L113.64-0.15Q113.3-0.1 112.71 0.01 112.13 0.12 111.35 0.27L111.35 0.27Q110.1 0.51 109.33 0.61 108.56 0.71 108.05 0.71L108.05 0.71Q107.49 0.71 106.96 0.52 106.44 0.34 106.05-0.02 105.66-0.39 105.42-0.93 105.19-1.46 105.19-2.17ZM137.44-1.81L137.44-1.81Q137.44-2.25 137.48-2.71 137.51-3.17 137.56-3.61L137.56-3.61Q137.64-4.27 137.71-5.05 137.78-5.83 137.78-6.81L137.78-6.81Q137.78-8.72 137.77-10.41 137.76-12.11 137.71-13.92L137.71-13.92Q137.71-13.96 137.71-14.07 137.71-14.18 137.7-14.53 137.69-14.87 137.67-15.53 137.66-16.19 137.64-17.38 137.61-18.58 137.58-20.37 137.54-22.17 137.49-24.76L137.49-24.76Q137.17-24.71 136.75-24.67 136.32-24.63 135.73-24.63L135.73-24.63Q135.29-24.63 134.84-24.78 134.39-24.93 134.01-25.23 133.63-25.54 133.4-26.04 133.17-26.54 133.17-27.27L133.17-27.27Q133.17-28.59 133.84-29.26 134.51-29.93 135.49-29.93L135.49-29.93Q135.88-29.93 136.24-29.83 136.61-29.74 137.03-29.74L137.03-29.74Q137.51-29.74 138.03-29.76 138.54-29.79 139.03-29.83L139.03-29.83Q139.57-29.88 140.09-29.91 140.62-29.93 141.03-29.93L141.03-29.93Q142.03-29.93 142.69-29.27 143.35-28.61 143.35-27.42L143.35-27.42Q143.35-27.12 143.34-26.73 143.32-26.34 143.28-25.98L143.28-25.98Q144.11-26.78 145.16-27.51 146.21-28.25 147.44-28.82 148.67-29.39 150.09-29.74 151.5-30.08 153.09-30.08L153.09-30.08Q156.19-30.08 158.52-29.06 160.85-28.05 162.43-26.14 164-24.22 164.8-21.44 165.59-18.65 165.59-15.11L165.59-15.11Q165.59-14.04 165.44-12.87 165.3-11.69 165.04-10.52 164.78-9.35 164.43-8.19 164.08-7.03 163.64-6.01L163.64-6.01Q164.2-6.18 164.71-6.3 165.22-6.42 165.57-6.47L165.57-6.47Q168.3-6.74 168.3-3.98L168.3-3.98Q168.3-3.64 168.23-3.23 168.15-2.83 167.93-2.45 167.71-2.08 167.32-1.75 166.93-1.42 166.32-1.2L166.32-1.2 163.69-0.59Q162.47-0.22 161.72 0.04 160.98 0.29 160.48 0.45 159.98 0.61 159.63 0.67 159.29 0.73 158.88 0.71L158.88 0.71Q158.29 0.71 157.85 0.43 157.41 0.15 157.12-0.28 156.83-0.71 156.68-1.22 156.53-1.73 156.53-2.22L156.53-2.22Q156.53-3 156.75-3.81 156.97-4.61 157.53-5.27L157.53-5.27Q158.22-6.15 158.69-7.25 159.17-8.35 159.46-9.62 159.76-10.89 159.89-12.28 160.02-13.67 160.02-15.11L160.02-15.11Q160.02-16.77 159.67-18.49 159.32-20.21 158.47-21.62 157.63-23.02 156.25-23.91 154.87-24.8 152.8-24.8L152.8-24.8Q151.36-24.8 149.98-24.35 148.6-23.9 147.34-23.16 146.08-22.41 144.99-21.46 143.89-20.51 143.06-19.51L143.06-19.51Q143.03-18.41 143.02-17.3 143.01-16.19 143.01-15.06L143.01-15.06Q142.96-13.16 142.93-11.28 142.91-9.4 142.91-7.47L142.91-7.47Q142.91-6.91 142.91-6.34 142.91-5.76 142.96-5.13L142.96-5.13 143.62-5.32Q143.89-5.4 144.14-5.46 144.4-5.52 144.59-5.52L144.59-5.52Q145.91-5.52 146.6-4.87 147.28-4.22 147.28-2.98L147.28-2.98Q147.28-2.05 146.91-1.5 146.55-0.95 145.99-0.65 145.42-0.34 144.75-0.22 144.08-0.1 143.45-0.02L143.45-0.02Q143.11 0.02 142.79 0.06 142.47 0.1 142.25 0.17L142.25 0.17Q141.47 0.39 140.91 0.55 140.35 0.71 139.93 0.71L139.93 0.71Q138.49 0.71 137.97 0.05 137.44-0.61 137.44-1.81ZM199.86-3.37L199.86-3.37Q196.32-12.43 194.17-17.64 192.03-22.85 191.12-24.46L191.12-24.46 191.12-24.44Q190.71-25.15 190.39-26.01 190.07-26.88 190.07-27.42L190.07-27.42Q190.07-28.08 190.34-28.58 190.61-29.08 191.04-29.41 191.46-29.74 191.98-29.91 192.49-30.08 192.98-30.08L192.98-30.08Q193.66-30.08 194.09-29.91 194.52-29.74 194.8-29.42 195.08-29.1 195.27-28.65 195.47-28.2 195.69-27.61L195.69-27.61Q197.76-22.88 199.64-18.03 201.52-13.18 203.62-8.03L203.62-8.03Q204.14-9.38 204.6-10.69 205.06-12.01 205.6-13.48L205.6-13.48Q206.21-15.16 206.77-16.76 207.33-18.36 207.94-19.92L207.94-19.92Q207.46-21.09 206.94-22.25 206.43-23.41 205.82-24.56L205.82-24.56Q205.4-25.29 205.2-26.01 204.99-26.73 204.99-27.29L204.99-27.29Q204.99-27.95 205.21-28.47 205.43-28.98 205.81-29.35 206.19-29.71 206.66-29.9 207.14-30.08 207.65-30.08L207.65-30.08Q208.33-30.08 208.8-29.85 209.26-29.61 209.58-29.24 209.9-28.86 210.12-28.37 210.34-27.88 210.53-27.37L210.53-27.37Q210.58-27.22 210.62-27.12 210.65-27.03 210.73-26.86L210.73-26.86 210.85-27.2Q211.07-27.71 211.34-28.23 211.61-28.76 211.98-29.16 212.36-29.57 212.85-29.82 213.34-30.08 214-30.08L214-30.08Q214.49-30.08 214.96-29.91 215.44-29.74 215.83-29.39 216.22-29.05 216.45-28.56 216.68-28.08 216.68-27.47L216.68-27.47Q216.68-26.83 216.45-26.32 216.22-25.81 215.95-25.34L215.95-25.34 213.53-19.85 218.27-8.03 224.64-25.15Q224.81-25.88 225.06-26.73 225.3-27.59 225.72-28.33 226.13-29.08 226.78-29.58 227.43-30.08 228.4-30.08L228.4-30.08Q229.06-30.08 229.6-29.85 230.14-29.61 230.53-29.25 230.92-28.88 231.13-28.41 231.33-27.93 231.33-27.47L231.33-27.47Q231.33-26.9 231.16-26.45 230.99-26 230.76-25.57 230.53-25.15 230.25-24.74 229.97-24.34 229.75-23.88L229.75-23.88Q229.6-23.58 229.34-22.92 229.09-22.27 228.72-21.34 228.35-20.41 227.93-19.29 227.5-18.16 227.04-16.97L227.04-16.97Q226.47-15.48 225.85-13.89 225.23-12.3 224.62-10.74 224.01-9.18 223.41-7.73 222.81-6.27 222.3-5.08L222.3-5.08Q221.96-4.32 221.76-3.72 221.57-3.13 221.42-2.56L221.42-2.56Q221.18-1.81 220.96-1.21 220.74-0.61 220.41-0.18 220.08 0.24 219.55 0.48 219.03 0.71 218.2 0.71L218.2 0.71Q217.17 0.71 216.29-0.34 215.41-1.39 214.54-3.52L214.54-3.52Q213.58-5.91 212.7-8.33 211.83-10.74 210.8-13.26L210.8-13.26Q209.78-10.62 208.69-8.03 207.6-5.44 206.75-2.59L206.75-2.59Q206.53-1.93 206.3-1.33 206.06-0.73 205.71-0.28 205.36 0.17 204.86 0.44 204.36 0.71 203.62 0.71L203.62 0.71Q203.04 0.71 202.55 0.49 202.06 0.27 201.62-0.23 201.18-0.73 200.75-1.5 200.33-2.27 199.86-3.37ZM243.88-33.64L243.88-33.64Q243.29-33.37 242.66-33.39 242.02-33.4 241.5-33.65 240.97-33.91 240.58-34.4 240.19-34.89 240.09-35.57L240.09-35.57Q240.02-36.04 240.13-36.63 240.24-37.23 240.42-37.85 240.61-38.48 240.77-39.07 240.92-39.67 240.97-40.16L240.97-40.16Q241.05-41.26 241.63-41.99 242.22-42.72 243.39-42.9L243.39-42.9Q244.25-43.04 245-42.8 245.76-42.55 246.13-41.72L246.13-41.72Q246.25-41.46 246.33-41.1 246.42-40.75 246.47-40.48L246.47-40.48Q246.49-40.23 246.45-39.87 246.42-39.5 246.32-39.1 246.22-38.7 246.09-38.29 245.95-37.89 245.83-37.6L245.83-37.6Q245.64-37.18 245.58-36.71 245.51-36.23 245.44-35.84L245.44-35.84Q245.37-35.45 245.3-35.13 245.22-34.81 245.06-34.55 244.9-34.28 244.62-34.06 244.34-33.84 243.88-33.64ZM239.7-1.83L239.7-1.83Q239.7-2.44 239.77-2.86 239.83-3.27 239.89-3.77 239.95-4.27 240.01-4.96 240.07-5.64 240.07-6.81L240.07-6.81Q240.07-11.18 240.05-15.49 240.02-19.8 239.92-24.61L239.92-24.61Q239.56-24.58 239.09-24.56 238.63-24.54 238.13-24.52 237.63-24.51 237.17-24.5 236.7-24.49 236.34-24.49L236.34-24.49Q235.9-24.49 235.44-24.62 234.99-24.76 234.63-25.07 234.26-25.39 234.02-25.89 233.77-26.39 233.77-27.12L233.77-27.12Q233.77-28.42 234.47-29.09 235.16-29.76 236.12-29.76L236.12-29.76Q237.04-29.76 237.96-29.68 238.87-29.59 239.75-29.59L239.75-29.59Q240.66-29.59 241.56-29.68 242.46-29.76 243.27-29.76L243.27-29.76Q244.51-29.76 245.05-29.1 245.59-28.44 245.59-27.27L245.59-27.27Q245.59-26.27 245.42-25.31 245.25-24.34 245.25-23.24L245.25-23.24Q245.25-21.04 245.22-18.82 245.2-16.6 245.19-14.31 245.17-12.01 245.16-9.62 245.15-7.23 245.2-4.69L245.2-4.69Q245.59-4.71 245.91-4.81 246.22-4.91 246.52-5.02 246.81-5.13 247.14-5.21 247.47-5.3 247.88-5.3L247.88-5.3Q248.52-5.3 248.92-5.15 249.32-5 249.57-4.75 249.81-4.49 249.93-4.11 250.06-3.74 250.15-3.3L250.15-3.3Q250.32-2.15 249.59-1.46 248.86-0.78 247.59-0.39L247.59-0.39Q246.86-0.2 246.09 0 245.32 0.2 244.64 0.35 243.95 0.51 243.39 0.61 242.83 0.71 242.51 0.71L242.51 0.71Q241.07 0.71 240.39 0.04 239.7-0.63 239.7-1.83ZM259.31-1.86L259.4-7.08 259.26-24.29 256.3-24.27Q255.74-24.27 255.33-24.5 254.91-24.73 254.63-25.13 254.35-25.54 254.2-26.05 254.06-26.56 254.06-27.12L254.06-27.12Q254.06-28.08 254.29-28.58 254.52-29.08 254.96-29.31 255.4-29.54 256.03-29.58 256.67-29.61 257.5-29.61L257.5-29.61 259.23-29.61 259.23-30.52Q259.23-31.42 259.22-31.98 259.21-32.54 259.21-32.74L259.21-32.74Q259.21-33.45 259.07-34.16 258.94-34.86 258.94-35.6L258.94-35.6Q258.94-36.21 259.09-36.67 259.23-37.13 259.59-37.46 259.94-37.79 260.53-37.96 261.11-38.13 261.97-38.13L261.97-38.13Q262.55-38.13 263.08-38.04 263.6-37.94 264.01-37.66 264.41-37.38 264.65-36.89 264.9-36.4 264.9-35.62L264.9-35.62Q264.9-34.57 264.71-33.54 264.53-32.52 264.56-31.42L264.56-31.42 264.56-29.64Q266.46-29.69 267.52-29.71 268.58-29.74 269.24-29.76L269.24-29.76Q269.34-29.76 269.43-29.77 269.51-29.79 269.58-29.79L269.58-29.79Q269.88-29.81 270.24-29.81 270.61-29.81 270.83-29.81L270.83-29.81Q271.29-29.81 271.73-29.66 272.17-29.52 272.5-29.17 272.83-28.83 273.03-28.3 273.22-27.76 273.22-27L273.22-27Q273.22-26.42 273.12-25.9 273.03-25.39 272.76-25 272.49-24.61 271.98-24.38 271.46-24.15 270.66-24.15L270.66-24.15Q269.9-24.15 269.13-24.23 268.36-24.32 267.56-24.34L267.56-24.34 264.6-24.32 264.77-5.05Q265.78-5.22 266.53-5.37 267.29-5.52 267.95-5.66 268.61-5.81 269.24-6.01 269.88-6.2 270.63-6.49L270.63-6.49Q271.05-6.71 271.61-6.95 272.17-7.18 272.78-7.18L272.78-7.18Q273.98-7.18 274.66-6.36 275.35-5.54 275.35-4.22L275.35-4.22Q275.35-3.88 275.19-3.47 275.03-3.05 274.71-2.65 274.39-2.25 273.89-1.92 273.39-1.59 272.71-1.44L272.71-1.44Q271.98-1.29 271.02-1.07 270.07-0.85 269.02-0.61 267.97-0.37 266.92-0.12 265.87 0.12 264.95 0.31 264.02 0.49 263.31 0.61 262.6 0.73 262.24 0.71L262.24 0.71Q261.8 0.71 261.27 0.6 260.75 0.49 260.31 0.21 259.87-0.07 259.59-0.57 259.31-1.07 259.31-1.86L259.31-1.86ZM281.86-1.76L281.86-1.76Q281.86-2.2 281.9-2.66 281.94-3.13 281.98-3.59L281.98-3.59Q282.06-4.22 282.13-5 282.2-5.79 282.2-6.74L282.2-6.74Q282.2-8.18 282.19-10.45 282.18-12.72 282.16-15.49 282.13-18.26 282.11-21.33 282.08-24.39 282.05-27.43 282.01-30.47 281.97-33.28 281.94-36.08 281.91-38.33L281.91-38.33Q281.54-38.38 281.13-38.29 280.71-38.21 280.15-38.21L280.15-38.21Q279.71-38.21 279.26-38.35 278.81-38.5 278.43-38.81 278.05-39.11 277.82-39.62 277.59-40.14 277.59-40.87L277.59-40.87Q277.59-42.16 278.27-42.83 278.96-43.51 279.91-43.51L279.91-43.51Q280.3-43.51 280.67-43.41 281.03-43.31 281.45-43.31L281.45-43.31Q281.94-43.31 282.45-43.33 282.96-43.36 283.45-43.41L283.45-43.41Q283.99-43.46 284.51-43.48 285.04-43.51 285.43-43.51L285.43-43.51Q286.45-43.51 287.1-42.83 287.75-42.16 287.75-40.99L287.75-40.99Q287.75-37.84 287.69-34.58 287.62-31.32 287.58-27.56L287.58-27.56 287.53-26.32Q288.38-27.08 289.41-27.76 290.43-28.44 291.59-28.96 292.75-29.47 294-29.77 295.24-30.08 296.54-30.08L296.54-30.08Q299.61-30.08 302.02-29.17 304.42-28.27 306.08-26.42 307.74-24.56 308.61-21.75 309.47-18.95 309.47-15.11L309.47-15.11Q309.47-13.99 309.32-12.77 309.16-11.55 308.86-10.33 308.57-9.11 308.16-7.92 307.74-6.74 307.23-5.71L307.23-5.71Q307.77-5.91 308.3-6.07 308.84-6.23 309.47-6.23L309.47-6.23Q310.28-6.23 310.79-5.92 311.31-5.62 311.59-5.2 311.87-4.79 311.96-4.35 312.06-3.91 312.06-3.66L312.06-3.66Q312.06-2.73 311.51-2.08 310.96-1.42 310.11-1.12L310.11-1.12Q309.4-0.85 308.33-0.54 307.25-0.22 306.17 0.05 305.08 0.32 304.13 0.51 303.18 0.71 302.69 0.71L302.69 0.71Q301.1 0.71 300.43-0.06 299.76-0.83 299.76-2.05L299.76-2.05Q299.76-2.71 300.12-3.49 300.49-4.27 301-4.93L301-4.93Q301.64-5.83 302.17-7.02 302.71-8.2 303.11-9.53 303.52-10.86 303.75-12.29 303.98-13.72 303.98-15.11L303.98-15.11Q303.98-17.41 303.55-19.21 303.13-21.02 302.2-22.27 301.27-23.51 299.79-24.16 298.32-24.8 296.22-24.8L296.22-24.8Q295-24.8 293.78-24.37 292.56-23.93 291.41-23.21 290.26-22.49 289.25-21.55 288.23-20.61 287.45-19.63L287.45-19.63Q287.4-15.99 287.39-12.39 287.38-8.79 287.43-5.03L287.43-5.03Q287.48-5.03 287.56-5.05 287.65-5.08 287.97-5.2L287.97-5.2Q288.19-5.3 288.44-5.37 288.7-5.44 289.02-5.47L289.02-5.47Q290.33-5.52 291.03-4.85 291.73-4.17 291.73-2.93L291.73-2.93Q291.73-2.49 291.57-2.06 291.41-1.64 291.14-1.29 290.87-0.95 290.5-0.71 290.14-0.46 289.7-0.37L289.7-0.37Q289.21-0.27 288.73-0.16 288.26-0.05 287.77 0.05L287.77 0.05Q287.33 0.15 286.83 0.27 286.33 0.39 285.85 0.49 285.38 0.59 284.99 0.65 284.6 0.71 284.35 0.71L284.35 0.71Q282.91 0.71 282.39 0.07 281.86-0.56 281.86-1.76ZM338.42-1.59L338.42-1.59Q338.42-2.56 338.42-3.85 338.42-5.13 338.4-6.57L338.4-6.57Q338.38-8.79 338.38-11.34 338.38-13.89 338.39-16.6 338.4-19.31 338.41-22.13 338.42-24.95 338.42-27.73 338.42-30.52 338.39-33.19 338.35-35.86 338.28-38.31L338.28-38.31Q337.84-38.33 337.37-38.24 336.91-38.16 336.3-38.16L336.3-38.16Q335.86-38.16 335.43-38.31 335.01-38.45 334.68-38.78 334.35-39.11 334.15-39.62 333.96-40.14 333.96-40.87L333.96-40.87Q333.96-42.16 334.63-42.83 335.3-43.51 336.28-43.51L336.28-43.51Q336.67-43.51 337.03-43.41 337.4-43.31 337.81-43.31L337.81-43.31Q338.79-43.31 339.76-43.41 340.72-43.51 341.82-43.51L341.82-43.51Q342.82-43.51 343.48-42.83 344.14-42.16 344.14-40.99L344.14-40.99Q344.14-39.4 344.11-37.54 344.09-35.67 344.05-33.72 344.02-31.76 343.99-29.85 343.97-27.93 343.94-26.27L343.94-26.27Q344.75-27.12 345.8-27.82 346.85-28.52 348.09-29.02 349.34-29.52 350.7-29.8 352.07-30.08 353.51-30.08L353.51-30.08Q356.76-30.08 359.46-29 362.16-27.93 364.08-25.94 366.01-23.95 367.07-21.13 368.14-18.31 368.14-14.84L368.14-14.84Q368.14-11.01 366.98-8.11 365.82-5.2 363.74-3.23 361.67-1.27 358.8-0.28 355.93 0.71 352.49 0.71L352.49 0.71Q351.22 0.71 349.97 0.46 348.73 0.22 347.58-0.23 346.43-0.68 345.43-1.29 344.43-1.9 343.65-2.64L343.65-2.64 343.65-1.61Q343.65-0.98 343.36-0.56 343.06-0.15 342.62 0.1 342.18 0.34 341.66 0.43 341.13 0.51 340.67 0.51L340.67 0.51Q339.62 0.51 339.02 0.11 338.42-0.29 338.42-1.59ZM343.43-14.5L343.43-14.5Q343.43-12.18 344.17-10.34 344.92-8.5 346.16-7.21 347.41-5.93 349.01-5.24 350.61-4.54 352.32-4.54L352.32-4.54Q354.44-4.54 356.26-5.13 358.08-5.71 359.42-6.96 360.76-8.2 361.52-10.14 362.28-12.08 362.28-14.77L362.28-14.77Q362.28-17.09 361.63-18.95 360.98-20.8 359.76-22.11 358.54-23.41 356.81-24.11 355.08-24.8 352.88-24.8L352.88-24.8Q351.02-24.8 349.31-24.04 347.6-23.27 346.3-21.89 344.99-20.51 344.21-18.62 343.43-16.72 343.43-14.5ZM373.58-14.72L373.58-14.72Q373.58-17.9 374.76-20.69 375.95-23.49 378.01-25.57 380.07-27.66 382.83-28.87 385.59-30.08 388.74-30.08L388.74-30.08Q392.18-30.08 394.98-28.87 397.77-27.66 399.76-25.57 401.75-23.49 402.83-20.69 403.9-17.9 403.9-14.72L403.9-14.72Q403.9-12.4 403.35-10.35 402.8-8.3 401.8-6.59 400.8-4.88 399.4-3.53 397.99-2.17 396.31-1.23 394.62-0.29 392.71 0.21 390.79 0.71 388.74 0.71L388.74 0.71Q385.66 0.71 382.9-0.4 380.15-1.51 378.07-3.53 376-5.54 374.79-8.39 373.58-11.23 373.58-14.72ZM379.22-14.72L379.22-14.72Q379.22-12.4 379.88-10.52 380.54-8.64 381.77-7.31 383-5.98 384.76-5.26 386.52-4.54 388.72-4.54L388.72-4.54Q390.67-4.54 392.4-5.2 394.14-5.86 395.44-7.14 396.75-8.42 397.52-10.33 398.29-12.23 398.29-14.72L398.29-14.72Q398.29-16.77 397.64-18.62 396.99-20.46 395.77-21.83 394.55-23.19 392.77-24 390.99-24.8 388.72-24.8L388.72-24.8Q386.44-24.8 384.69-24 382.93-23.19 381.71-21.83 380.49-20.46 379.85-18.62 379.22-16.77 379.22-14.72ZM413.42-1.86L413.52-7.08 413.37-24.29 410.42-24.27Q409.86-24.27 409.44-24.5 409.03-24.73 408.74-25.13 408.46-25.54 408.32-26.05 408.17-26.56 408.17-27.12L408.17-27.12Q408.17-28.08 408.4-28.58 408.63-29.08 409.07-29.31 409.51-29.54 410.15-29.58 410.78-29.61 411.61-29.61L411.61-29.61 413.35-29.61 413.35-30.52Q413.35-31.42 413.33-31.98 413.32-32.54 413.32-32.74L413.32-32.74Q413.32-33.45 413.19-34.16 413.05-34.86 413.05-35.6L413.05-35.6Q413.05-36.21 413.2-36.67 413.35-37.13 413.7-37.46 414.05-37.79 414.64-37.96 415.23-38.13 416.08-38.13L416.08-38.13Q416.67-38.13 417.19-38.04 417.72-37.94 418.12-37.66 418.52-37.38 418.77-36.89 419.01-36.4 419.01-35.62L419.01-35.62Q419.01-34.57 418.83-33.54 418.64-32.52 418.67-31.42L418.67-31.42 418.67-29.64Q420.57-29.69 421.63-29.71 422.7-29.74 423.36-29.76L423.36-29.76Q423.45-29.76 423.54-29.77 423.62-29.79 423.7-29.79L423.7-29.79Q423.99-29.81 424.36-29.81 424.72-29.81 424.94-29.81L424.94-29.81Q425.41-29.81 425.85-29.66 426.29-29.52 426.62-29.17 426.95-28.83 427.14-28.3 427.34-27.76 427.34-27L427.34-27Q427.34-26.42 427.24-25.9 427.14-25.39 426.87-25 426.6-24.61 426.09-24.38 425.58-24.15 424.77-24.15L424.77-24.15Q424.02-24.15 423.25-24.23 422.48-24.32 421.67-24.34L421.67-24.34 418.72-24.32 418.89-5.05Q419.89-5.22 420.65-5.37 421.4-5.52 422.06-5.66 422.72-5.81 423.36-6.01 423.99-6.2 424.75-6.49L424.75-6.49Q425.16-6.71 425.72-6.95 426.29-7.18 426.9-7.18L426.9-7.18Q428.09-7.18 428.78-6.36 429.46-5.54 429.46-4.22L429.46-4.22Q429.46-3.88 429.3-3.47 429.14-3.05 428.82-2.65 428.51-2.25 428.01-1.92 427.51-1.59 426.82-1.44L426.82-1.44Q426.09-1.29 425.14-1.07 424.19-0.85 423.14-0.61 422.09-0.37 421.04-0.12 419.99 0.12 419.06 0.31 418.13 0.49 417.42 0.61 416.72 0.73 416.35 0.71L416.35 0.71Q415.91 0.71 415.38 0.6 414.86 0.49 414.42 0.21 413.98-0.07 413.7-0.57 413.42-1.07 413.42-1.86L413.42-1.86ZM433.95-6.32L433.95-6.32Q433.95-6.88 434.22-7.35 434.49-7.81 434.89-8.14 435.29-8.47 435.78-8.65 436.27-8.84 436.73-8.84L436.73-8.84Q437.29-8.84 437.68-8.72 438.08-8.59 438.37-8.37 438.66-8.15 438.88-7.86 439.1-7.57 439.34-7.23L439.34-7.23Q440.32-5.76 442.2-4.97 444.08-4.17 447.11-4.17L447.11-4.17Q448.35-4.17 449.46-4.39 450.58-4.61 451.42-5.05 452.26-5.49 452.76-6.13 453.26-6.76 453.26-7.59L453.26-7.59Q453.26-8.72 452.61-9.5 451.97-10.28 450.9-10.84 449.84-11.4 448.5-11.79 447.16-12.18 445.74-12.55L445.74-12.55Q444.45-12.87 443.13-13.24 441.81-13.62 440.57-14.12 439.32-14.62 438.23-15.32 437.15-16.02 436.34-16.97 435.54-17.92 435.06-19.18 434.58-20.43 434.58-22.07L434.58-22.07Q434.58-24.27 435.62-25.79 436.66-27.32 438.31-28.27 439.96-29.22 441.98-29.65 444.01-30.08 445.96-30.08L445.96-30.08Q447.08-30.08 448.01-29.96 448.94-29.83 449.75-29.64 450.55-29.44 451.28-29.16 452.02-28.88 452.75-28.59L452.75-28.59Q452.85-28.96 453.05-29.33 453.26-29.71 453.55-30.02 453.85-30.32 454.24-30.52 454.63-30.71 455.12-30.71L455.12-30.71Q456.31-30.71 456.97-30.25 457.63-29.79 457.63-28.61L457.63-28.61Q457.63-27.69 457.56-26.68 457.48-25.68 457.48-24.49L457.48-24.49Q457.61-24.19 457.66-23.84 457.7-23.49 457.7-23.22L457.7-23.22Q457.7-22.63 457.51-22.23 457.31-21.83 456.97-21.57 456.63-21.31 456.18-21.19 455.73-21.07 455.19-21.07L455.19-21.07Q454.7-21.07 454.25-21.24 453.8-21.41 453.43-21.69 453.07-21.97 452.8-22.34 452.53-22.71 452.38-23.1L452.38-23.1Q451.99-23.41 451.39-23.82 450.8-24.22 449.98-24.56 449.16-24.9 448.11-25.13 447.06-25.37 445.79-25.37L445.79-25.37Q444.55-25.37 443.48-25.13 442.42-24.9 441.65-24.46 440.88-24.02 440.44-23.41 440-22.8 440-22.05L440-22.05Q440-21.07 440.6-20.37 441.2-19.68 442.2-19.15 443.2-18.63 444.53-18.21 445.86-17.8 447.3-17.41L447.3-17.41Q449.28-16.87 451.3-16.21 453.31-15.55 454.93-14.51 456.56-13.48 457.58-11.9 458.61-10.33 458.61-7.96L458.61-7.96Q458.61-6.13 458.05-4.79 457.48-3.44 456.56-2.48 455.63-1.51 454.4-0.89 453.16-0.27 451.83 0.09 450.5 0.44 449.13 0.57 447.77 0.71 446.55 0.71L446.55 0.71Q444.84 0.71 443.25 0.39 441.66 0.07 440.26-0.46 438.86-1 437.7-1.71 436.54-2.42 435.71-3.2 434.88-3.98 434.41-4.79 433.95-5.59 433.95-6.32Z" opacity="1" transform="matrix(1,0,0,1,0,0)" fill="#f2fb58" class="slogan-text-1" data-fill-palette-color="secondary" id="text-1"></path></svg></g></svg></g></svg></g></svg></g></svg></g></svg></g></svg></g><g><path d="M0 123.6c0-68.262 55.338-123.6 123.6-123.6 47.739 0 89.157 27.065 109.747 66.688l-3.117 0c-20.349-38.047-60.467-63.931-106.63-63.931-66.74 0-120.843 54.103-120.843 120.843 0 66.74 54.103 120.843 120.843 120.843 46.163 0 86.28-25.885 106.63-63.931h3.117c-20.589 39.623-62.007 66.688-109.747 66.688-68.262 0-123.6-55.338-123.6-123.6z" fill="#f2fb58" stroke="transparent" data-fill-palette-color="tertiary"></path></g></svg></g><defs></defs></svg><rect width="395.52" height="247.2" fill="none" stroke="none" visibility="hidden"></rect></g></svg></g></svg>